<mxfile host="app.diagrams.net" modified="2024-07-23T14:44:55.443Z" agent="Mozilla/5.0 (Macintosh; Intel Mac OS X 10_15_7) AppleWebKit/537.36 (KHTML, like Gecko) Chrome/126.0.0.0 Safari/537.36" etag="rQW1Gc_Qr7NkbPXmqxpJ" version="24.7.1" type="device">
  <diagram name="Page-1" id="-H_mtQnk-PTXWXPvYvuk">
    <mxGraphModel dx="1183" dy="711" grid="1" gridSize="10" guides="1" tooltips="1" connect="1" arrows="1" fold="1" page="1" pageScale="1" pageWidth="1169" pageHeight="827" math="0" shadow="0">
      <root>
        <mxCell id="0" />
        <mxCell id="1" parent="0" />
        <mxCell id="zA23MoTUsTF4_91t8viU-2" value="MongoDB" style="shape=cylinder3;whiteSpace=wrap;html=1;boundedLbl=1;backgroundOutline=1;size=15;fillColor=#fff2cc;strokeColor=#d6b656;" parent="1" vertex="1">
          <mxGeometry x="785" y="352" width="60" height="80" as="geometry" />
        </mxCell>
        <mxCell id="AZ_0WxoAM86HgjmTqXl6-2" value="router" style="text;html=1;align=center;verticalAlign=middle;resizable=0;points=[];autosize=1;strokeColor=none;fillColor=none;" vertex="1" parent="1">
          <mxGeometry x="790" y="352" width="50" height="30" as="geometry" />
        </mxCell>
        <mxCell id="AZ_0WxoAM86HgjmTqXl6-3" value="" style="rounded=1;whiteSpace=wrap;html=1;" vertex="1" parent="1">
          <mxGeometry x="935" y="115" width="230" height="270" as="geometry" />
        </mxCell>
        <mxCell id="AZ_0WxoAM86HgjmTqXl6-5" value="Replica set - rs1" style="text;html=1;align=center;verticalAlign=middle;resizable=0;points=[];autosize=1;strokeColor=none;fillColor=none;" vertex="1" parent="1">
          <mxGeometry x="950" y="115" width="110" height="30" as="geometry" />
        </mxCell>
        <mxCell id="AZ_0WxoAM86HgjmTqXl6-6" value="" style="rounded=1;whiteSpace=wrap;html=1;" vertex="1" parent="1">
          <mxGeometry x="935" y="455" width="230" height="260" as="geometry" />
        </mxCell>
        <mxCell id="AZ_0WxoAM86HgjmTqXl6-31" style="edgeStyle=orthogonalEdgeStyle;rounded=0;orthogonalLoop=1;jettySize=auto;html=1;dashed=1;exitX=0.5;exitY=1;exitDx=0;exitDy=0;exitPerimeter=0;" edge="1" parent="1" source="AZ_0WxoAM86HgjmTqXl6-7">
          <mxGeometry relative="1" as="geometry">
            <mxPoint x="1047.4552631578947" y="565" as="sourcePoint" />
            <mxPoint x="992.55" y="615" as="targetPoint" />
            <Array as="points">
              <mxPoint x="1050" y="585" />
              <mxPoint x="993" y="585" />
            </Array>
          </mxGeometry>
        </mxCell>
        <mxCell id="AZ_0WxoAM86HgjmTqXl6-32" style="edgeStyle=orthogonalEdgeStyle;rounded=0;orthogonalLoop=1;jettySize=auto;html=1;dashed=1;" edge="1" parent="1">
          <mxGeometry relative="1" as="geometry">
            <mxPoint x="1044.995263157895" y="565" as="sourcePoint" />
            <mxPoint x="1105.1311111111104" y="615" as="targetPoint" />
            <Array as="points">
              <mxPoint x="1050" y="565" />
              <mxPoint x="1050" y="585" />
              <mxPoint x="1105" y="585" />
            </Array>
          </mxGeometry>
        </mxCell>
        <mxCell id="AZ_0WxoAM86HgjmTqXl6-8" value="Replica set - rs2" style="text;html=1;align=center;verticalAlign=middle;resizable=0;points=[];autosize=1;strokeColor=none;fillColor=none;" vertex="1" parent="1">
          <mxGeometry x="950" y="455" width="110" height="30" as="geometry" />
        </mxCell>
        <mxCell id="AZ_0WxoAM86HgjmTqXl6-9" value="" style="endArrow=classic;html=1;rounded=0;entryX=0;entryY=0.5;entryDx=0;entryDy=0;exitX=1;exitY=0.413;exitDx=0;exitDy=0;exitPerimeter=0;" edge="1" parent="1" source="zA23MoTUsTF4_91t8viU-2" target="AZ_0WxoAM86HgjmTqXl6-3">
          <mxGeometry width="50" height="50" relative="1" as="geometry">
            <mxPoint x="875" y="350" as="sourcePoint" />
            <mxPoint x="845" y="405" as="targetPoint" />
            <Array as="points">
              <mxPoint x="910" y="385" />
              <mxPoint x="910" y="250" />
            </Array>
          </mxGeometry>
        </mxCell>
        <mxCell id="AZ_0WxoAM86HgjmTqXl6-10" value="" style="endArrow=classic;html=1;rounded=0;entryX=0;entryY=0.5;entryDx=0;entryDy=0;exitX=1;exitY=0;exitDx=0;exitDy=52.5;exitPerimeter=0;" edge="1" parent="1" source="zA23MoTUsTF4_91t8viU-2">
          <mxGeometry width="50" height="50" relative="1" as="geometry">
            <mxPoint x="875" y="420" as="sourcePoint" />
            <mxPoint x="935" y="585" as="targetPoint" />
            <Array as="points">
              <mxPoint x="910" y="405" />
              <mxPoint x="910" y="585" />
            </Array>
          </mxGeometry>
        </mxCell>
        <mxCell id="AZ_0WxoAM86HgjmTqXl6-11" value="" style="rounded=1;whiteSpace=wrap;html=1;" vertex="1" parent="1">
          <mxGeometry x="745" y="495" width="140" height="135" as="geometry" />
        </mxCell>
        <mxCell id="AZ_0WxoAM86HgjmTqXl6-12" value="MongoDB" style="shape=cylinder3;whiteSpace=wrap;html=1;boundedLbl=1;backgroundOutline=1;size=15;fillColor=#fff2cc;strokeColor=#d6b656;" vertex="1" parent="1">
          <mxGeometry x="785" y="530" width="60" height="80" as="geometry" />
        </mxCell>
        <mxCell id="AZ_0WxoAM86HgjmTqXl6-13" value="configSrv" style="text;html=1;align=center;verticalAlign=middle;resizable=0;points=[];autosize=1;strokeColor=none;fillColor=none;" vertex="1" parent="1">
          <mxGeometry x="780" y="530" width="70" height="30" as="geometry" />
        </mxCell>
        <mxCell id="AZ_0WxoAM86HgjmTqXl6-29" style="edgeStyle=orthogonalEdgeStyle;rounded=0;orthogonalLoop=1;jettySize=auto;html=1;dashed=1;" edge="1" parent="1" source="AZ_0WxoAM86HgjmTqXl6-15" target="AZ_0WxoAM86HgjmTqXl6-14">
          <mxGeometry relative="1" as="geometry" />
        </mxCell>
        <mxCell id="AZ_0WxoAM86HgjmTqXl6-30" style="edgeStyle=orthogonalEdgeStyle;rounded=0;orthogonalLoop=1;jettySize=auto;html=1;dashed=1;" edge="1" parent="1" source="AZ_0WxoAM86HgjmTqXl6-15" target="AZ_0WxoAM86HgjmTqXl6-4">
          <mxGeometry relative="1" as="geometry" />
        </mxCell>
        <mxCell id="AZ_0WxoAM86HgjmTqXl6-33" value="Репликация" style="text;html=1;align=center;verticalAlign=middle;resizable=0;points=[];autosize=1;strokeColor=none;fillColor=none;glass=1;" vertex="1" parent="1">
          <mxGeometry x="1005" y="255" width="90" height="30" as="geometry" />
        </mxCell>
        <mxCell id="AZ_0WxoAM86HgjmTqXl6-35" value="Репликация" style="text;html=1;align=center;verticalAlign=middle;resizable=0;points=[];autosize=1;strokeColor=none;fillColor=none;glass=1;" vertex="1" parent="1">
          <mxGeometry x="1000" y="580" width="90" height="30" as="geometry" />
        </mxCell>
        <mxCell id="AZ_0WxoAM86HgjmTqXl6-36" value="Replica set - config_rs" style="text;html=1;align=center;verticalAlign=middle;resizable=0;points=[];autosize=1;strokeColor=none;fillColor=none;" vertex="1" parent="1">
          <mxGeometry x="745" y="495" width="140" height="30" as="geometry" />
        </mxCell>
        <mxCell id="AZ_0WxoAM86HgjmTqXl6-37" value="" style="endArrow=classic;html=1;rounded=0;exitX=0.5;exitY=1;exitDx=0;exitDy=0;exitPerimeter=0;dashed=1;" edge="1" parent="1" source="zA23MoTUsTF4_91t8viU-2" target="AZ_0WxoAM86HgjmTqXl6-11">
          <mxGeometry width="50" height="50" relative="1" as="geometry">
            <mxPoint x="875" y="455" as="sourcePoint" />
            <mxPoint x="925" y="405" as="targetPoint" />
          </mxGeometry>
        </mxCell>
        <mxCell id="AZ_0WxoAM86HgjmTqXl6-38" value="" style="group" vertex="1" connectable="0" parent="1">
          <mxGeometry x="1070" y="615" width="70" height="80" as="geometry" />
        </mxCell>
        <mxCell id="AZ_0WxoAM86HgjmTqXl6-17" value="MongoDB" style="shape=cylinder3;whiteSpace=wrap;html=1;boundedLbl=1;backgroundOutline=1;size=15;fillColor=#fff2cc;strokeColor=#d6b656;" vertex="1" parent="AZ_0WxoAM86HgjmTqXl6-38">
          <mxGeometry x="5" width="60" height="80" as="geometry" />
        </mxCell>
        <mxCell id="AZ_0WxoAM86HgjmTqXl6-28" value="shard2-3" style="text;html=1;align=center;verticalAlign=middle;resizable=0;points=[];autosize=1;strokeColor=none;fillColor=none;" vertex="1" parent="AZ_0WxoAM86HgjmTqXl6-38">
          <mxGeometry width="70" height="30" as="geometry" />
        </mxCell>
        <mxCell id="AZ_0WxoAM86HgjmTqXl6-39" value="" style="group" vertex="1" connectable="0" parent="1">
          <mxGeometry x="960" y="615" width="70" height="80" as="geometry" />
        </mxCell>
        <mxCell id="AZ_0WxoAM86HgjmTqXl6-16" value="MongoDB" style="shape=cylinder3;whiteSpace=wrap;html=1;boundedLbl=1;backgroundOutline=1;size=15;fillColor=#fff2cc;strokeColor=#d6b656;" vertex="1" parent="AZ_0WxoAM86HgjmTqXl6-39">
          <mxGeometry x="5" width="60" height="80" as="geometry" />
        </mxCell>
        <mxCell id="AZ_0WxoAM86HgjmTqXl6-27" value="shard2-2" style="text;html=1;align=center;verticalAlign=middle;resizable=0;points=[];autosize=1;strokeColor=none;fillColor=none;" vertex="1" parent="AZ_0WxoAM86HgjmTqXl6-39">
          <mxGeometry width="70" height="30" as="geometry" />
        </mxCell>
        <mxCell id="AZ_0WxoAM86HgjmTqXl6-40" value="" style="group" vertex="1" connectable="0" parent="1">
          <mxGeometry x="1014.93" y="485" width="70" height="80" as="geometry" />
        </mxCell>
        <mxCell id="AZ_0WxoAM86HgjmTqXl6-7" value="MongoDB" style="shape=cylinder3;whiteSpace=wrap;html=1;boundedLbl=1;backgroundOutline=1;size=15;fillColor=#fff2cc;strokeColor=#d6b656;" vertex="1" parent="AZ_0WxoAM86HgjmTqXl6-40">
          <mxGeometry x="5" width="60" height="80" as="geometry" />
        </mxCell>
        <mxCell id="AZ_0WxoAM86HgjmTqXl6-26" value="shard2-1" style="text;html=1;align=center;verticalAlign=middle;resizable=0;points=[];autosize=1;strokeColor=none;fillColor=none;" vertex="1" parent="AZ_0WxoAM86HgjmTqXl6-40">
          <mxGeometry width="70" height="30" as="geometry" />
        </mxCell>
        <mxCell id="AZ_0WxoAM86HgjmTqXl6-41" style="edgeStyle=orthogonalEdgeStyle;rounded=0;orthogonalLoop=1;jettySize=auto;html=1;exitX=0.5;exitY=1;exitDx=0;exitDy=0;" edge="1" parent="1" source="AZ_0WxoAM86HgjmTqXl6-6" target="AZ_0WxoAM86HgjmTqXl6-6">
          <mxGeometry relative="1" as="geometry" />
        </mxCell>
        <mxCell id="AZ_0WxoAM86HgjmTqXl6-42" value="" style="group" vertex="1" connectable="0" parent="1">
          <mxGeometry x="1070" y="295" width="70" height="80" as="geometry" />
        </mxCell>
        <mxCell id="AZ_0WxoAM86HgjmTqXl6-4" value="MongoDB" style="shape=cylinder3;whiteSpace=wrap;html=1;boundedLbl=1;backgroundOutline=1;size=15;fillColor=#fff2cc;strokeColor=#d6b656;" vertex="1" parent="AZ_0WxoAM86HgjmTqXl6-42">
          <mxGeometry x="5" width="60" height="80" as="geometry" />
        </mxCell>
        <mxCell id="AZ_0WxoAM86HgjmTqXl6-25" value="shard1-3" style="text;html=1;align=center;verticalAlign=middle;resizable=0;points=[];autosize=1;strokeColor=none;fillColor=none;" vertex="1" parent="AZ_0WxoAM86HgjmTqXl6-42">
          <mxGeometry width="70" height="30" as="geometry" />
        </mxCell>
        <mxCell id="AZ_0WxoAM86HgjmTqXl6-43" value="" style="group" vertex="1" connectable="0" parent="1">
          <mxGeometry x="960" y="295" width="70" height="80" as="geometry" />
        </mxCell>
        <mxCell id="AZ_0WxoAM86HgjmTqXl6-14" value="MongoDB" style="shape=cylinder3;whiteSpace=wrap;html=1;boundedLbl=1;backgroundOutline=1;size=15;fillColor=#fff2cc;strokeColor=#d6b656;" vertex="1" parent="AZ_0WxoAM86HgjmTqXl6-43">
          <mxGeometry x="5" width="60" height="80" as="geometry" />
        </mxCell>
        <mxCell id="AZ_0WxoAM86HgjmTqXl6-24" value="shard1-2" style="text;html=1;align=center;verticalAlign=middle;resizable=0;points=[];autosize=1;strokeColor=none;fillColor=none;" vertex="1" parent="AZ_0WxoAM86HgjmTqXl6-43">
          <mxGeometry width="70" height="30" as="geometry" />
        </mxCell>
        <mxCell id="AZ_0WxoAM86HgjmTqXl6-44" value="" style="group" vertex="1" connectable="0" parent="1">
          <mxGeometry x="1015" y="145" width="70" height="80" as="geometry" />
        </mxCell>
        <mxCell id="AZ_0WxoAM86HgjmTqXl6-15" value="MongoDB" style="shape=cylinder3;whiteSpace=wrap;html=1;boundedLbl=1;backgroundOutline=1;size=15;fillColor=#fff2cc;strokeColor=#d6b656;" vertex="1" parent="AZ_0WxoAM86HgjmTqXl6-44">
          <mxGeometry x="5" width="60" height="80" as="geometry" />
        </mxCell>
        <mxCell id="AZ_0WxoAM86HgjmTqXl6-23" value="shard1-1" style="text;html=1;align=center;verticalAlign=middle;resizable=0;points=[];autosize=1;strokeColor=none;fillColor=none;" vertex="1" parent="AZ_0WxoAM86HgjmTqXl6-44">
          <mxGeometry width="70" height="30" as="geometry" />
        </mxCell>
        <mxCell id="AZ_0WxoAM86HgjmTqXl6-47" value="" style="group" vertex="1" connectable="0" parent="1">
          <mxGeometry x="775" y="215" width="80" height="60" as="geometry" />
        </mxCell>
        <mxCell id="AZ_0WxoAM86HgjmTqXl6-46" value="" style="rhombus;whiteSpace=wrap;html=1;fillColor=#99CCFF;rounded=1;" vertex="1" parent="AZ_0WxoAM86HgjmTqXl6-47">
          <mxGeometry y="20" width="80" height="40" as="geometry" />
        </mxCell>
        <mxCell id="AZ_0WxoAM86HgjmTqXl6-45" value="" style="rhombus;whiteSpace=wrap;html=1;fillColor=#99CCFF;rounded=1;" vertex="1" parent="AZ_0WxoAM86HgjmTqXl6-47">
          <mxGeometry y="10" width="80" height="40" as="geometry" />
        </mxCell>
        <mxCell id="AZ_0WxoAM86HgjmTqXl6-19" value="" style="rhombus;whiteSpace=wrap;html=1;fillColor=#99CCFF;rounded=1;" vertex="1" parent="AZ_0WxoAM86HgjmTqXl6-47">
          <mxGeometry width="80" height="40" as="geometry" />
        </mxCell>
        <mxCell id="AZ_0WxoAM86HgjmTqXl6-21" value="redis" style="text;html=1;align=center;verticalAlign=middle;resizable=0;points=[];autosize=1;strokeColor=none;fillColor=none;" vertex="1" parent="AZ_0WxoAM86HgjmTqXl6-47">
          <mxGeometry x="15" y="5" width="50" height="30" as="geometry" />
        </mxCell>
        <mxCell id="AZ_0WxoAM86HgjmTqXl6-58" style="edgeStyle=orthogonalEdgeStyle;rounded=0;orthogonalLoop=1;jettySize=auto;html=1;entryX=1;entryY=0.5;entryDx=0;entryDy=0;dashed=1;exitX=0;exitY=0.75;exitDx=0;exitDy=0;fillColor=#dae8fc;strokeColor=#6c8ebf;" edge="1" parent="1" source="AZ_0WxoAM86HgjmTqXl6-60" target="AZ_0WxoAM86HgjmTqXl6-54">
          <mxGeometry relative="1" as="geometry">
            <Array as="points">
              <mxPoint x="415" y="393" />
              <mxPoint x="415" y="535" />
            </Array>
          </mxGeometry>
        </mxCell>
        <mxCell id="AZ_0WxoAM86HgjmTqXl6-63" style="edgeStyle=orthogonalEdgeStyle;rounded=0;orthogonalLoop=1;jettySize=auto;html=1;entryX=0;entryY=0.25;entryDx=0;entryDy=0;" edge="1" parent="1" source="AZ_0WxoAM86HgjmTqXl6-51" target="AZ_0WxoAM86HgjmTqXl6-61">
          <mxGeometry relative="1" as="geometry">
            <Array as="points">
              <mxPoint x="400" y="425" />
              <mxPoint x="400" y="447" />
            </Array>
          </mxGeometry>
        </mxCell>
        <mxCell id="AZ_0WxoAM86HgjmTqXl6-65" style="edgeStyle=orthogonalEdgeStyle;rounded=0;orthogonalLoop=1;jettySize=auto;html=1;endArrow=none;endFill=0;startArrow=classic;startFill=1;exitX=0;exitY=0.25;exitDx=0;exitDy=0;fillColor=#dae8fc;strokeColor=#6c8ebf;entryX=1.01;entryY=0.76;entryDx=0;entryDy=0;entryPerimeter=0;" edge="1" parent="1" source="AZ_0WxoAM86HgjmTqXl6-51" target="AZ_0WxoAM86HgjmTqXl6-70">
          <mxGeometry relative="1" as="geometry">
            <mxPoint x="160" y="410" as="targetPoint" />
          </mxGeometry>
        </mxCell>
        <mxCell id="AZ_0WxoAM86HgjmTqXl6-51" value="apisix gateway" style="rounded=1;whiteSpace=wrap;html=1;fillColor=#dae8fc;strokeColor=#6c8ebf;" vertex="1" parent="1">
          <mxGeometry x="195" y="395" width="120" height="60" as="geometry" />
        </mxCell>
        <mxCell id="AZ_0WxoAM86HgjmTqXl6-54" value="consul" style="rounded=1;whiteSpace=wrap;html=1;fillColor=#dae8fc;strokeColor=#6c8ebf;" vertex="1" parent="1">
          <mxGeometry x="195" y="505" width="120" height="60" as="geometry" />
        </mxCell>
        <mxCell id="AZ_0WxoAM86HgjmTqXl6-56" style="edgeStyle=orthogonalEdgeStyle;rounded=0;orthogonalLoop=1;jettySize=auto;html=1;" edge="1" parent="1" source="AZ_0WxoAM86HgjmTqXl6-55" target="AZ_0WxoAM86HgjmTqXl6-54">
          <mxGeometry relative="1" as="geometry" />
        </mxCell>
        <mxCell id="AZ_0WxoAM86HgjmTqXl6-55" value="consul_kv" style="rounded=1;whiteSpace=wrap;html=1;" vertex="1" parent="1">
          <mxGeometry x="195" y="445" width="120" height="30" as="geometry" />
        </mxCell>
        <mxCell id="AZ_0WxoAM86HgjmTqXl6-60" value="" style="rounded=1;whiteSpace=wrap;html=1;dashed=1;" vertex="1" parent="1">
          <mxGeometry x="445" y="325" width="140" height="90" as="geometry" />
        </mxCell>
        <mxCell id="zA23MoTUsTF4_91t8viU-3" value="pymongo-api" style="rounded=1;whiteSpace=wrap;html=1;" parent="1" vertex="1">
          <mxGeometry x="455" y="341" width="120" height="60" as="geometry" />
        </mxCell>
        <mxCell id="zA23MoTUsTF4_91t8viU-4" style="edgeStyle=orthogonalEdgeStyle;rounded=0;orthogonalLoop=1;jettySize=auto;html=1;exitX=1;exitY=0.25;exitDx=0;exitDy=0;entryX=0;entryY=0.5;entryDx=0;entryDy=0;fillColor=#dae8fc;strokeColor=#6c8ebf;" parent="1" source="AZ_0WxoAM86HgjmTqXl6-60" target="AZ_0WxoAM86HgjmTqXl6-45" edge="1">
          <mxGeometry relative="1" as="geometry">
            <mxPoint x="775" y="235" as="targetPoint" />
            <Array as="points">
              <mxPoint x="625" y="348" />
              <mxPoint x="625" y="245" />
            </Array>
          </mxGeometry>
        </mxCell>
        <mxCell id="AZ_0WxoAM86HgjmTqXl6-20" style="edgeStyle=orthogonalEdgeStyle;rounded=0;orthogonalLoop=1;jettySize=auto;html=1;exitX=1;exitY=0.75;exitDx=0;exitDy=0;entryX=0;entryY=0.5;entryDx=0;entryDy=0;entryPerimeter=0;fillColor=#f8cecc;strokeColor=#b85450;" edge="1" parent="1" source="AZ_0WxoAM86HgjmTqXl6-60" target="zA23MoTUsTF4_91t8viU-2">
          <mxGeometry relative="1" as="geometry">
            <mxPoint x="755" y="385" as="targetPoint" />
            <Array as="points">
              <mxPoint x="725" y="393" />
              <mxPoint x="785" y="392" />
            </Array>
          </mxGeometry>
        </mxCell>
        <mxCell id="AZ_0WxoAM86HgjmTqXl6-50" style="edgeStyle=orthogonalEdgeStyle;rounded=0;orthogonalLoop=1;jettySize=auto;html=1;entryX=0;entryY=0.5;entryDx=0;entryDy=0;fillColor=#dae8fc;strokeColor=#6c8ebf;exitX=1;exitY=0.25;exitDx=0;exitDy=0;" edge="1" parent="1" source="AZ_0WxoAM86HgjmTqXl6-61" target="AZ_0WxoAM86HgjmTqXl6-45">
          <mxGeometry relative="1" as="geometry">
            <mxPoint x="575" y="440" as="sourcePoint" />
            <Array as="points">
              <mxPoint x="625" y="448" />
              <mxPoint x="625" y="245" />
            </Array>
          </mxGeometry>
        </mxCell>
        <mxCell id="AZ_0WxoAM86HgjmTqXl6-49" style="edgeStyle=orthogonalEdgeStyle;rounded=0;orthogonalLoop=1;jettySize=auto;html=1;fillColor=#f8cecc;strokeColor=#b85450;exitX=1;exitY=0.75;exitDx=0;exitDy=0;entryX=0;entryY=0.5;entryDx=0;entryDy=0;entryPerimeter=0;" edge="1" parent="1" source="AZ_0WxoAM86HgjmTqXl6-61" target="zA23MoTUsTF4_91t8viU-2">
          <mxGeometry relative="1" as="geometry">
            <mxPoint x="575" y="470" as="sourcePoint" />
            <mxPoint x="775" y="405" as="targetPoint" />
            <Array as="points">
              <mxPoint x="725" y="493" />
              <mxPoint x="725" y="392" />
            </Array>
          </mxGeometry>
        </mxCell>
        <mxCell id="AZ_0WxoAM86HgjmTqXl6-52" style="edgeStyle=orthogonalEdgeStyle;rounded=0;orthogonalLoop=1;jettySize=auto;html=1;entryX=0;entryY=0.25;entryDx=0;entryDy=0;" edge="1" parent="1" source="AZ_0WxoAM86HgjmTqXl6-51" target="AZ_0WxoAM86HgjmTqXl6-60">
          <mxGeometry relative="1" as="geometry">
            <Array as="points">
              <mxPoint x="400" y="425" />
              <mxPoint x="400" y="348" />
            </Array>
          </mxGeometry>
        </mxCell>
        <mxCell id="AZ_0WxoAM86HgjmTqXl6-64" style="edgeStyle=orthogonalEdgeStyle;rounded=0;orthogonalLoop=1;jettySize=auto;html=1;entryX=1;entryY=0.5;entryDx=0;entryDy=0;dashed=1;exitX=0;exitY=0.75;exitDx=0;exitDy=0;fillColor=#dae8fc;strokeColor=#6c8ebf;" edge="1" parent="1" source="AZ_0WxoAM86HgjmTqXl6-61" target="AZ_0WxoAM86HgjmTqXl6-54">
          <mxGeometry relative="1" as="geometry">
            <Array as="points">
              <mxPoint x="415" y="492" />
              <mxPoint x="415" y="535" />
            </Array>
          </mxGeometry>
        </mxCell>
        <mxCell id="AZ_0WxoAM86HgjmTqXl6-61" value="" style="rounded=1;whiteSpace=wrap;html=1;dashed=1;" vertex="1" parent="1">
          <mxGeometry x="445" y="425" width="140" height="90" as="geometry" />
        </mxCell>
        <mxCell id="AZ_0WxoAM86HgjmTqXl6-62" value="pymongo-api" style="rounded=1;whiteSpace=wrap;html=1;" vertex="1" parent="1">
          <mxGeometry x="455" y="441" width="120" height="60" as="geometry" />
        </mxCell>
        <mxCell id="AZ_0WxoAM86HgjmTqXl6-69" style="edgeStyle=orthogonalEdgeStyle;rounded=0;orthogonalLoop=1;jettySize=auto;html=1;startArrow=classic;startFill=1;endArrow=none;endFill=0;entryX=1;entryY=0.25;entryDx=0;entryDy=0;fillColor=#dae8fc;strokeColor=#6c8ebf;" edge="1" parent="1" source="AZ_0WxoAM86HgjmTqXl6-68" target="AZ_0WxoAM86HgjmTqXl6-70">
          <mxGeometry relative="1" as="geometry">
            <mxPoint x="110" y="365" as="targetPoint" />
            <Array as="points">
              <mxPoint x="340" y="130" />
              <mxPoint x="340" y="364" />
            </Array>
          </mxGeometry>
        </mxCell>
        <mxCell id="AZ_0WxoAM86HgjmTqXl6-68" value="CDN" style="ellipse;shape=cloud;whiteSpace=wrap;html=1;fillColor=#dae8fc;strokeColor=#6c8ebf;" vertex="1" parent="1">
          <mxGeometry x="760" y="90" width="120" height="80" as="geometry" />
        </mxCell>
        <mxCell id="AZ_0WxoAM86HgjmTqXl6-70" value="Сайт" style="rounded=1;whiteSpace=wrap;html=1;" vertex="1" parent="1">
          <mxGeometry x="10" y="341" width="120" height="91" as="geometry" />
        </mxCell>
        <mxCell id="AZ_0WxoAM86HgjmTqXl6-71" value="Получение статического контента&amp;nbsp;&lt;div&gt;из CDN&lt;/div&gt;" style="text;html=1;align=center;verticalAlign=middle;resizable=0;points=[];autosize=1;strokeColor=none;fillColor=none;" vertex="1" parent="1">
          <mxGeometry x="130" y="344" width="220" height="40" as="geometry" />
        </mxCell>
        <mxCell id="AZ_0WxoAM86HgjmTqXl6-72" value="Получение данных из&lt;div&gt;кэша&lt;/div&gt;" style="text;html=1;align=center;verticalAlign=middle;resizable=0;points=[];autosize=1;strokeColor=none;fillColor=none;" vertex="1" parent="1">
          <mxGeometry x="614" y="224" width="150" height="40" as="geometry" />
        </mxCell>
        <mxCell id="AZ_0WxoAM86HgjmTqXl6-73" value="Получение данных из&amp;nbsp;&lt;div&gt;базы&lt;/div&gt;" style="text;html=1;align=center;verticalAlign=middle;resizable=0;points=[];autosize=1;strokeColor=none;fillColor=none;" vertex="1" parent="1">
          <mxGeometry x="614" y="372" width="150" height="40" as="geometry" />
        </mxCell>
        <mxCell id="AZ_0WxoAM86HgjmTqXl6-75" value="Регистрация&lt;div&gt;инстанса&lt;/div&gt;" style="text;html=1;align=center;verticalAlign=middle;resizable=0;points=[];autosize=1;strokeColor=none;fillColor=none;" vertex="1" parent="1">
          <mxGeometry x="323" y="515" width="100" height="40" as="geometry" />
        </mxCell>
        <mxCell id="AZ_0WxoAM86HgjmTqXl6-76" value="Запрос&lt;div&gt;API&lt;/div&gt;" style="text;html=1;align=center;verticalAlign=middle;resizable=0;points=[];autosize=1;strokeColor=none;fillColor=none;" vertex="1" parent="1">
          <mxGeometry x="131" y="389" width="60" height="40" as="geometry" />
        </mxCell>
        <mxCell id="AZ_0WxoAM86HgjmTqXl6-77" value="Распределение&lt;div&gt;запросов&lt;/div&gt;" style="text;html=1;align=center;verticalAlign=middle;resizable=0;points=[];autosize=1;strokeColor=none;fillColor=none;" vertex="1" parent="1">
          <mxGeometry x="307" y="405" width="110" height="40" as="geometry" />
        </mxCell>
        <mxCell id="AZ_0WxoAM86HgjmTqXl6-78" value="Получение&lt;div&gt;&lt;span style=&quot;background-color: initial;&quot;&gt;данных&lt;/span&gt;&lt;div&gt;&lt;div&gt;из&amp;nbsp;&lt;span style=&quot;background-color: initial;&quot;&gt;шардов&lt;/span&gt;&lt;/div&gt;&lt;/div&gt;&lt;/div&gt;" style="text;html=1;align=center;verticalAlign=middle;resizable=0;points=[];autosize=1;strokeColor=none;fillColor=none;" vertex="1" parent="1">
          <mxGeometry x="832" y="364" width="90" height="60" as="geometry" />
        </mxCell>
      </root>
    </mxGraphModel>
  </diagram>
</mxfile>
